<svg width="79" height="120" viewBox="0 0 79 120" fill="none" xmlns="http://www.w3.org/2000/svg">
    <path d="M12.9577 111.131L26.2219 119.29L39.5139 111.131L52.7781 119.29L66.0423 111.131L79 119.29V0H0V119.29L12.9577 111.131Z" fill="url(#paint0_linear_131_28)"/>
    <path d="M71.3372 101.443H9.78125V102.612H71.3372V101.443Z" fill="black"/>
    <path d="M26.3336 16.7822H9.78125V17.9511H26.3336V16.7822Z" fill="black"/>
    <path d="M69.2184 16.7822H52.666V17.9511H69.2184V16.7822Z" fill="black"/>
    <path d="M34.1641 13.9431C33.8855 14.4719 33.6068 15.0563 33.3281 15.7243C33.0495 16.3922 32.7708 17.0602 32.4922 17.7838C32.2135 18.5073 31.9348 19.1753 31.6283 19.7876C31.4097 20.2909 31.1186 20.7597 30.7645 21.1791C30.4781 21.5363 30.1286 21.8381 29.7334 22.0697C29.3958 22.2768 29.0138 22.4008 28.6188 22.4315C28.2665 22.4591 27.913 22.3969 27.5914 22.2509C27.2697 22.1049 26.9904 21.8797 26.7796 21.5966C26.6167 21.3518 26.5031 21.0776 26.4452 20.7895C26.3943 20.5235 26.3849 20.2512 26.4174 19.9824C26.438 19.7733 26.4848 19.5676 26.5567 19.3701C26.6403 19.2309 26.696 19.1475 26.8075 19.1196C26.8911 19.1196 26.9747 19.2031 27.0304 19.4258C27.073 19.6371 27.192 19.8254 27.3648 19.9545C27.5136 20.0707 27.6841 20.1558 27.8664 20.205C28.0605 20.2328 28.2575 20.2328 28.4516 20.205C28.656 20.1454 28.8525 20.0613 29.0368 19.9545C29.1974 19.8494 29.3468 19.7282 29.4826 19.5927C29.6355 19.4375 29.7753 19.2699 29.9006 19.0918C30.0463 18.9177 30.1768 18.7315 30.2907 18.5352C30.4022 18.3404 30.5137 18.1456 30.6251 17.9786C30.8202 17.6168 31.0431 17.1993 31.2661 16.754C31.489 16.3087 31.7119 15.8634 31.9348 15.3903C32.1537 14.9332 32.3955 14.4873 32.6593 14.0544C32.8835 13.642 33.1446 13.2508 33.4396 12.8856C32.9203 12.9224 32.3994 12.9317 31.8791 12.9134C31.3851 12.905 30.8919 12.8679 30.4022 12.8021C29.9285 12.7464 29.5105 12.6629 29.0925 12.5794C28.7277 12.5099 28.3722 12.3978 28.0336 12.2455C27.7263 12.1231 27.457 11.9214 27.2534 11.661C27.068 11.424 26.9178 11.1616 26.8075 10.8817C26.7098 10.6338 26.6625 10.3689 26.6682 10.1025C26.6626 9.89522 26.6909 9.68843 26.7518 9.49022C26.8075 9.32323 26.8911 9.21191 27.0026 9.18408C27.114 9.15625 27.2534 9.21191 27.3927 9.37889C27.731 9.70274 28.1418 9.94127 28.5909 10.0747C29.2275 10.2979 29.8794 10.4746 30.5415 10.6034C31.3159 10.7406 32.0974 10.8335 32.8823 10.8817C33.6618 10.9426 34.4452 10.9333 35.223 10.8539C35.5765 10.5799 35.9598 10.3465 36.3655 10.1582C36.7625 9.97402 37.1854 9.85199 37.6195 9.79635C37.9421 9.74429 38.273 9.79288 38.5669 9.93551C38.6649 9.98514 38.7507 10.0558 38.8181 10.1424C38.8856 10.229 38.933 10.3294 38.9571 10.4365C38.963 10.5656 38.9412 10.6945 38.8931 10.8145C38.845 10.9345 38.7718 11.0428 38.6784 11.1322C38.409 11.4405 38.0764 11.6872 37.7031 11.8558C37.3101 12.0515 36.8996 12.2099 36.477 12.3289C36.0201 12.4696 35.5547 12.5812 35.0837 12.6629C35.0763 12.6629 35.0692 12.6658 35.064 12.6711C35.0588 12.6763 35.0558 12.6834 35.0558 12.6907C34.7132 13.074 34.4141 13.494 34.1641 13.9431ZM50.4936 16.8375C50.4794 16.9984 50.4216 17.1523 50.3264 17.2828C50.0016 17.7399 49.638 18.1683 49.2396 18.563C48.8645 18.9278 48.4537 19.2541 48.0135 19.5371C47.6084 19.8026 47.1674 20.0087 46.7038 20.1494C46.2718 20.2909 45.8208 20.3659 45.3662 20.372C44.9199 20.3798 44.4789 20.2744 44.0844 20.0659C43.7378 19.8829 43.463 19.5888 43.3041 19.2309C43.1937 18.9652 43.1278 18.6831 43.1091 18.396C42.8048 18.7235 42.479 19.0303 42.1338 19.3144C41.7551 19.6108 41.3437 19.8629 40.9077 20.0659C40.5173 20.2587 40.0891 20.3632 39.6537 20.372C39.3711 20.3873 39.0901 20.3196 38.8456 20.1772C38.6546 20.0532 38.5006 19.8802 38.3997 19.6762C38.3122 19.4457 38.2835 19.197 38.3161 18.9526C38.3591 18.6386 38.4633 18.3361 38.6227 18.0621C38.7843 17.7508 38.9707 17.453 39.18 17.1715C39.4029 16.8653 39.598 16.5592 39.7652 16.3087C39.9012 16.1168 39.9961 15.8989 40.0438 15.6686C40.0717 15.5016 39.9602 15.4181 39.7373 15.4181C39.5258 15.4388 39.3237 15.5157 39.1521 15.6408C38.8726 15.818 38.6194 16.0335 38.3997 16.2809C38.0643 16.6299 37.7655 17.0122 37.508 17.422C37.1736 17.8951 36.8392 18.4795 36.4491 19.1475L36.3934 19.3144C36.2541 19.5927 36.1705 19.7876 36.0869 19.9545C36.0033 20.0937 35.9475 20.205 35.8361 20.2607C35.7384 20.3305 35.6218 20.3693 35.5017 20.372C35.3623 20.372 35.1673 20.3998 34.9165 20.3998C34.7581 20.4062 34.5994 20.3969 34.4428 20.372C34.3034 20.3442 34.2198 20.2885 34.192 20.205C34.1637 20.1439 34.1491 20.0775 34.1491 20.0102C34.1491 19.9429 34.1637 19.8765 34.192 19.8154C34.2748 19.5575 34.3773 19.3062 34.4985 19.064C34.7493 18.5908 35.0837 18.0064 35.5017 17.255C35.9197 16.5035 36.3934 15.7243 36.9228 14.9172C37.4523 14.0823 37.9817 13.303 38.5391 12.5238C39.0964 11.7445 39.598 11.0766 40.0717 10.52C40.2901 10.2563 40.5667 10.0467 40.8798 9.90768C41.0861 9.80263 41.3227 9.77309 41.5486 9.82418C41.7338 9.87592 41.8929 9.99507 41.9944 10.1582C42.1021 10.3535 42.1505 10.5759 42.1338 10.7983C42.0874 11.1772 41.9326 11.5347 41.6879 11.828C41.3946 12.1825 41.0781 12.5172 40.7405 12.8299C40.3782 13.1639 40.016 13.5257 39.6258 13.8596C39.2495 14.1962 38.9297 14.5908 38.6784 15.0285C38.991 14.7613 39.3377 14.5367 39.7094 14.3606C40.0195 14.1996 40.3632 14.1138 40.7126 14.1101C40.8725 14.0911 41.0346 14.1061 41.1883 14.1541C41.3419 14.202 41.4837 14.2819 41.6043 14.3884C41.6942 14.4907 41.7626 14.6098 41.8057 14.7388C41.8488 14.8679 41.8656 15.0042 41.8551 15.1398C41.8151 15.5132 41.7213 15.8788 41.5765 16.2252C41.3819 16.6714 41.1488 17.0997 40.8798 17.5054C40.7683 17.6724 40.6847 17.8394 40.5733 18.0064C40.4973 18.1562 40.4411 18.3153 40.4061 18.4795C40.3778 18.589 40.3778 18.704 40.4061 18.8135C40.4334 18.8618 40.4745 18.9008 40.5241 18.9256C40.5738 18.9504 40.6297 18.9598 40.6847 18.9526C40.9173 18.9469 41.1457 18.8899 41.3535 18.7857C41.6217 18.6687 41.8744 18.5192 42.1059 18.3404C42.6344 17.961 43.0801 17.478 43.4156 16.921C43.4713 16.8375 43.5271 16.7818 43.5549 16.7262C43.5828 16.6705 43.6107 16.587 43.6385 16.5314C43.8407 16.1449 44.0836 15.781 44.3631 15.446C44.64 15.1083 44.9693 14.8171 45.3384 14.5832C45.6752 14.3596 46.0547 14.208 46.453 14.1379C46.848 14.0596 47.2578 14.1083 47.6234 14.2771C47.8863 14.3829 48.1169 14.5556 48.2922 14.778C48.4444 14.9792 48.5318 15.2219 48.5429 15.4738C48.5383 15.7419 48.4815 16.0066 48.3758 16.2531C48.2307 16.5387 48.0321 16.7938 47.7906 17.0045C47.4042 17.3335 46.9725 17.6053 46.5087 17.8116C46.0282 18.0234 45.5225 18.173 45.004 18.2569C45.0462 18.476 45.1647 18.6731 45.3384 18.8135C45.504 18.9359 45.6941 19.0214 45.8957 19.064C46.2118 19.1135 46.535 19.0945 46.8431 19.0083C47.2135 18.918 47.5698 18.7775 47.902 18.5908C48.6202 18.1974 49.2469 17.6568 49.7412 17.0045C49.8413 16.8625 49.9754 16.7477 50.1313 16.6705C50.226 16.6218 50.3359 16.6118 50.4378 16.6427C50.4735 16.7015 50.4927 16.7688 50.4936 16.8375ZM45.004 17.255C45.3891 17.1812 45.7636 17.0596 46.1186 16.8932C46.5242 16.7135 46.8716 16.4243 47.1218 16.0583C47.3168 15.8078 47.3726 15.5851 47.289 15.4181C47.2054 15.2512 47.0382 15.1955 46.7874 15.2233C46.4797 15.2881 46.1983 15.4432 45.9793 15.6686C45.6065 16.0151 45.3202 16.4441 45.1433 16.921L45.004 17.255Z" fill="black"/>
    <path d="M69.2184 45.7257H64.9827L57.4589 31.8382V45.7257H52.666V25.2145H59.5768L64.3697 35.0666V25.2145H69.2184V45.7257ZM45.393 71.1629H33.6057C32.9718 71.1918 32.3518 70.9721 31.878 70.5506C31.6515 70.3604 31.4711 70.1212 31.3504 69.8513C31.2298 69.5814 31.1719 69.2876 31.1813 68.9921V50.5961H36.0579V66.7935H42.9686V50.5961H47.8452V68.9921C47.8546 69.2876 47.7968 69.5814 47.6761 69.8513C47.5554 70.1212 47.3751 70.3604 47.1485 70.5506C46.6615 70.9683 46.0345 71.187 45.393 71.1629ZM26.3327 32.2V27.4131C26.3367 27.1144 26.2766 26.8182 26.1564 26.5446C26.0363 26.2709 25.8588 26.0262 25.636 25.8268C25.1603 25.4056 24.544 25.1773 23.9083 25.1867H12.1768C11.5402 25.1723 10.9222 25.4013 10.4491 25.8268C10.2307 26.0282 10.0581 26.274 9.94273 26.5476C9.82737 26.8213 9.77199 27.1164 9.78028 27.4131V43.5549C9.7721 43.8476 9.82766 44.1385 9.94314 44.4076C10.0586 44.6767 10.2312 44.9175 10.4491 45.1134C10.9229 45.5349 11.5429 45.7546 12.1768 45.7257H23.8805C24.5143 45.7546 25.1343 45.5349 25.6081 45.1134C25.8347 44.9231 26.0151 44.684 26.1357 44.4141C26.2564 44.1441 26.3142 43.8504 26.3048 43.5549V38.8237H21.484V41.4119H14.5732V31.5042L11.926 29.6117H21.484V32.2H26.3327ZM47.0649 25.8268C46.5999 25.4062 45.9924 25.1774 45.3651 25.1867H33.6335C33.0062 25.1774 32.3987 25.4062 31.9337 25.8268C31.71 26.0133 31.5312 26.2478 31.4106 26.5128C31.29 26.7778 31.2307 27.0665 31.2371 27.3575V43.5549C31.2277 43.8504 31.2855 44.1441 31.4062 44.4141C31.5268 44.684 31.7072 44.9231 31.9337 45.1134C32.4018 45.526 33.0096 45.7449 33.6335 45.7257H45.393C46.0169 45.7449 46.6248 45.526 47.0928 45.1134C47.3193 44.9231 47.4997 44.684 47.6204 44.4141C47.741 44.1441 47.7988 43.8504 47.7895 43.5549V27.3575C47.7785 27.0667 47.7087 26.7811 47.5842 26.518C47.4596 26.2549 47.283 26.0198 47.0649 25.8268ZM42.9408 41.3563H36.0857V31.5042L33.3828 29.5839H42.9408V41.3563ZM27.8096 73.3337L25.8032 70.328C26.1469 69.9572 26.3362 69.4696 26.3327 68.9643V52.7669C26.3362 52.4763 26.2757 52.1885 26.1552 51.9239C26.0348 51.6594 25.8576 51.4246 25.636 51.2362C25.171 50.8155 24.5635 50.5868 23.9362 50.5961H12.1768C11.5494 50.5868 10.942 50.8155 10.4769 51.2362C10.2532 51.4227 10.0744 51.6572 9.95381 51.9222C9.83321 52.1871 9.7739 52.4758 9.78028 52.7669V68.9643C9.77089 69.2598 9.8287 69.5535 9.94936 69.8235C10.07 70.0934 10.2504 70.3325 10.4769 70.5228C10.945 70.9353 11.5528 71.1543 12.1768 71.1351H20.7037L22.1806 73.3615H27.8096V73.3337ZM11.926 54.9655H21.484V66.7378H14.629V56.8858L11.926 54.9655ZM23.7411 89.5312C24.3785 89.5505 24.9983 89.3209 25.4688 88.891C25.6959 88.6952 25.8764 88.4511 25.9969 88.1766C26.1174 87.9021 26.175 87.6042 26.1655 87.3047V78.2041C26.169 77.9135 26.1085 77.6257 25.9881 77.3611C25.8676 77.0966 25.6904 76.8618 25.4688 76.6734C24.9931 76.2522 24.3768 76.0239 23.7411 76.0333H9.78028V96.5445H14.629V89.5312H18.1122L22.8216 96.5723H28.4505L23.7411 89.5312ZM21.3447 85.1617H14.629V82.3508L11.926 80.4305H21.3725V85.1617H21.3447ZM47.0649 76.7012C46.5999 76.2806 45.9924 76.0518 45.3651 76.0611H33.6335C33.0062 76.0518 32.3987 76.2806 31.9337 76.7012C31.71 76.8878 31.5312 77.1222 31.4106 77.3872C31.29 77.6522 31.2307 77.9409 31.2371 78.2319V94.4293C31.2277 94.7248 31.2855 95.0186 31.4062 95.2885C31.5268 95.5585 31.7072 95.7976 31.9337 95.9879C32.4018 96.4004 33.0096 96.6193 33.6335 96.6001H45.393C46.0169 96.6193 46.6248 96.4004 47.0928 95.9879C47.3193 95.7976 47.4997 95.5585 47.6204 95.2885C47.741 95.0186 47.7988 94.7248 47.7895 94.4293V78.2319C47.7843 77.94 47.717 77.6526 47.5921 77.3887C47.4672 77.1248 47.2875 76.8904 47.0649 76.7012ZM42.9408 92.2029H36.0857V82.3508L33.3828 80.4305H42.9408V92.2029ZM66.6268 89.5312C67.2642 89.5505 67.884 89.3209 68.3545 88.891C68.5767 88.6911 68.7537 88.4463 68.8739 88.1728C68.994 87.8993 69.0544 87.6033 69.0512 87.3047V78.2041C69.0547 77.9135 68.9942 77.6257 68.8738 77.3611C68.7534 77.0966 68.5761 76.8618 68.3545 76.6734C67.8788 76.2522 67.2625 76.0239 66.6268 76.0333H52.666V96.5445H57.5147V89.5312H60.9979L65.7073 96.5723H71.3362L66.6268 89.5312ZM64.2304 85.1617H57.5147V82.3508L54.8117 80.4305H64.2304V85.1617ZM69.2184 50.6517H52.666V71.1629H69.2184V66.8492H57.4032V63.1477H65.1221V58.8339H57.4311V56.9415L54.8117 55.0768H69.2462V50.6517H69.2184Z" fill="black"/>
    <defs>
        <linearGradient id="paint0_linear_131_28" x1="71.7762" y1="5.05466" x2="9.09839" y2="107.664" gradientUnits="userSpaceOnUse">
            <stop stop-color="#FFEE99"/>
            <stop offset="0.208333" stop-color="#FEF9D0"/>
            <stop offset="1" stop-color="#DBB859"/>
        </linearGradient>
    </defs>
</svg>
