<svg width="21" height="20" viewBox="0 0 21 20" fill="none" xmlns="http://www.w3.org/2000/svg">
    <path d="M6.3584 13H15.3584C15.9084 13 16.3584 13.45 16.3584 14C16.3584 14.55 15.9084 15 15.3584 15H5.3584C4.8084 15 4.3584 14.55 4.3584 14V4H2.3584C1.8084 4 1.3584 3.55 1.3584 3C1.3584 2.45 1.8084 2 2.3584 2H5.3584C5.9084 2 6.3584 2.45 6.3584 3V5H19.3584L15.3584 12H6.3584V13ZM5.8584 16C6.6884 16 7.3584 16.67 7.3584 17.5C7.3584 18.33 6.6884 19 5.8584 19C5.0284 19 4.3584 18.33 4.3584 17.5C4.3584 16.67 5.0284 16 5.8584 16ZM14.8584 16C15.6884 16 16.3584 16.67 16.3584 17.5C16.3584 18.33 15.6884 19 14.8584 19C14.0284 19 13.3584 18.33 13.3584 17.5C13.3584 16.67 14.0284 16 14.8584 16Z" fill="white"/>
</svg>
