<svg width="36" height="40" viewBox="0 0 36 40" fill="none" xmlns="http://www.w3.org/2000/svg">
    <path d="M6.2798 34.9056L12.1563 39.3309L18.0452 34.9056L23.9218 39.3309L29.7983 34.9056L35.5391 39.3309L35.5391 0L0.539062 0L0.539062 39.3309L6.2798 34.9056Z" fill="#F1CA65"/>
    <path d="M12.4322 11.4884H10.7102V16.9204L6.91616 11.4884H5.23616V20.0844H6.95816V14.3584L11.0182 20.0844H12.4322V11.4884ZM14.0819 11.4884V20.0844H19.9199V18.5024H15.8459V16.4584H19.5419V14.9324H15.8459V13.0564H19.9199V11.4884H14.0819ZM25.3606 11.4884L23.8486 17.2704L22.4486 11.4884H20.6426L22.8826 20.0844H24.5206L26.0326 14.4144L27.5446 20.0844H29.1826L31.4226 11.4884H29.6586L28.2446 17.2704L26.7606 11.4884H25.3606Z" fill="black"/>
</svg>
